<?xml version="1.0" encoding="UTF-8"?>
<svg xmlns="http://www.w3.org/2000/svg" style="display: none;">
<symbol id="angle-down" viewBox="0 0 24 24">
    <path d="M17,9.17a1,1,0,0,0-1.41,0L12,12.71,8.46,9.17a1,1,0,0,0-1.41,0,1,1,0,0,0,0,1.42l4.24,4.24a1,1,0,0,0,1.42,0L17,10.59A1,1,0,0,0,17,9.17Z"/>
</symbol>
<symbol id="arrow-left" viewBox="0 0 24 24">
    <path d="M17,11H9.41l3.3-3.29a1,1,0,1,0-1.42-1.42l-5,5a1,1,0,0,0-.21.33,1,1,0,0,0,0,.76,1,1,0,0,0,.21.33l5,5a1,1,0,0,0,1.42,0,1,1,0,0,0,0-1.42L9.41,13H17a1,1,0,0,0,0-2Z"/>
</symbol>
<symbol id="check" viewBox="0 0 24 24">
    <path d="M18.71,7.21a1,1,0,0,0-1.42,0L9.84,14.67,6.71,11.53A1,1,0,1,0,5.29,13l3.84,3.84a1,1,0,0,0,1.42,0l8.16-8.16A1,1,0,0,0,18.71,7.21Z"/>
</symbol>
<symbol id="message" viewBox="0 0 24 24">
    <path d="M20.34,9.32l-14-7a3,3,0,0,0-4.08,3.9l2.4,5.37h0a1.06,1.06,0,0,1,0,.82l-2.4,5.37A3,3,0,0,0,5,22a3.14,3.14,0,0,0,1.35-.32l14-7a3,3,0,0,0,0-5.36Zm-.89,3.57-14,7a1,1,0,0,1-1.35-1.3l2.39-5.37A2,2,0,0,0,6.57,13h6.89a1,1,0,0,0,0-2H6.57a2,2,0,0,0-.08-.22L4.1,5.41a1,1,0,0,1,1.35-1.3l14,7a1,1,0,0,1,0,1.78Z"/>
</symbol>
<symbol id="home" viewBox="0 0 24 24">
    <path d="M20,8h0L14,2.74a3,3,0,0,0-4,0L4,8a3,3,0,0,0-1,2.26V19a3,3,0,0,0,3,3H18a3,3,0,0,0,3-3V10.25A3,3,0,0,0,20,8ZM14,20H10V15a1,1,0,0,1,1-1h2a1,1,0,0,1,1,1Zm5-1a1,1,0,0,1-1,1H16V15a3,3,0,0,0-3-3H11a3,3,0,0,0-3,3v5H6a1,1,0,0,1-1-1V10.25a1,1,0,0,1,.34-.75l6-5.25a1,1,0,0,1,1.32,0l6,5.25a1,1,0,0,1,.34.75Z"/>
</symbol>
<symbol id="notes" viewBox="0 0 24 24">
    <path d="M16,14H8a1,1,0,0,0,0,2h8a1,1,0,0,0,0-2Zm0-4H10a1,1,0,0,0,0,2h6a1,1,0,0,0,0-2Zm4-6H17V3a1,1,0,0,0-2,0V4H13V3a1,1,0,0,0-2,0V4H9V3A1,1,0,0,0,7,3V4H4A1,1,0,0,0,3,5V19a3,3,0,0,0,3,3H18a3,3,0,0,0,3-3V5A1,1,0,0,0,20,4ZM19,19a1,1,0,0,1-1,1H6a1,1,0,0,1-1-1V6H7V7A1,1,0,0,0,9,7V6h2V7a1,1,0,0,0,2,0V6h2V7a1,1,0,0,0,2,0V6h2Z"/>
</symbol>
<symbol id="comment" viewBox="0 0 24 24">
    <path d="M7,7A1,1,0,1,0,8,8,1,1,0,0,0,7,7Zm0,4a1,1,0,1,0,1,1A1,1,0,0,0,7,11Zm10,0H11a1,1,0,0,0,0,2h6a1,1,0,0,0,0-2Zm0-4H11a1,1,0,0,0,0,2h6a1,1,0,0,0,0-2Zm2-5H5A3,3,0,0,0,2,5V15a3,3,0,0,0,3,3H16.59l3.7,3.71A1,1,0,0,0,21,22a.84.84,0,0,0,.38-.08A1,1,0,0,0,22,21V5A3,3,0,0,0,19,2Zm1,16.59-2.29-2.3A1,1,0,0,0,17,16H5a1,1,0,0,1-1-1V5A1,1,0,0,1,5,4H19a1,1,0,0,1,1,1Z"/>
</symbol>
<symbol id="list" viewBox="0 0 24 24">
    <path d="M3.71,16.29a1,1,0,0,0-.33-.21,1,1,0,0,0-.76,0,1,1,0,0,0-.33.21,1,1,0,0,0-.21.33,1,1,0,0,0,.21,1.09,1.15,1.15,0,0,0,.33.21.94.94,0,0,0,.76,0,1.15,1.15,0,0,0,.33-.21,1,1,0,0,0,.21-1.09A1,1,0,0,0,3.71,16.29ZM7,8H21a1,1,0,0,0,0-2H7A1,1,0,0,0,7,8ZM3.71,11.29a1,1,0,0,0-1.09-.21,1.15,1.15,0,0,0-.33.21,1,1,0,0,0-.21.33.94.94,0,0,0,0,.76,1.15,1.15,0,0,0,.21.33,1.15,1.15,0,0,0,.33.21.94.94,0,0,0,.76,0,1.15,1.15,0,0,0,.33-.21,1.15,1.15,0,0,0,.21-.33.94.94,0,0,0,0-.76A1,1,0,0,0,3.71,11.29ZM21,11H7a1,1,0,0,0,0,2H21a1,1,0,0,0,0-2ZM3.71,6.29a1,1,0,0,0-.33-.21,1,1,0,0,0-1.09.21,1.15,1.15,0,0,0-.21.33.94.94,0,0,0,0,.76,1.15,1.15,0,0,0,.21.33,1.15,1.15,0,0,0,.33.21,1,1,0,0,0,1.09-.21,1.15,1.15,0,0,0,.21-.33.94.94,0,0,0,0-.76A1.15,1.15,0,0,0,3.71,6.29ZM21,16H7a1,1,0,0,0,0,2H21a1,1,0,0,0,0-2Z"/>
</symbol>
<symbol id="analysis" viewBox="0 0 24 24">
    <path d="M21.71,7.29a1,1,0,0,0-1.42,0L14,13.59,9.71,9.29a1,1,0,0,0-1.42,0l-6,6a1,1,0,0,0,0,1.42,1,1,0,0,0,1.42,0L9,11.41l4.29,4.3a1,1,0,0,0,1.42,0l7-7A1,1,0,0,0,21.71,7.29Z"/>
</symbol>
<symbol id="comparison" viewBox="0 0 24 24">
    <path d="M21,20H4v-.54l5-5,3.8,3.8a1,1,0,0,0,1.41,0l7.5-7.5a1,1,0,0,0,0-1.42,1,1,0,0,0-1.41,0l-6.8,6.8-3.79-3.8a1,1,0,0,0-1.41,0L4,16.63V11.46l5-5,2.8,2.8a1,1,0,0,0,1.41,0L18,4.47l2.19,2.19a1,1,0,0,0,1.41-1.42L18.69,2.35a1,1,0,0,0-1.41,0l-4.8,4.8L9.69,4.35a1,1,0,0,0-1.41,0L4,8.63V3A1,1,0,0,0,2,3V21a1,1,0,0,0,1,1H21a1,1,0,0,0,0-2Z"/>
</symbol>
<symbol id="sync" viewBox="0 0 24 24">
    <path d="M19.91,15.51H15.38a1,1,0,0,0,0,2h2.4A8,8,0,0,1,4,12a1,1,0,0,0-2,0,10,10,0,0,0,16.88,7.23V21a1,1,0,0,0,2,0V16.5A1,1,0,0,0,19.91,15.51ZM12,2A10,10,0,0,0,5.12,4.77V3a1,1,0,0,0-2,0V7.5a1,1,0,0,0,1,1h4.5a1,1,0,0,0,0-2H6.22A8,8,0,0,1,20,12a1,1,0,0,0,2,0A10,10,0,0,0,12,2Z"/>
</symbol>
</svg>
