<?xml version="1.0" encoding="UTF-8"?>
<svg xmlns="http://www.w3.org/2000/svg" style="display: none;">
<symbol id="angle-down" viewBox="0 0 24 24">
    <path d="M17,9.17a1,1,0,0,0-1.41,0L12,12.71,8.46,9.17a1,1,0,0,0-1.41,0,1,1,0,0,0,0,1.42l4.24,4.24a1,1,0,0,0,1.42,0L17,10.59A1,1,0,0,0,17,9.17Z"/>
</symbol>
<symbol id="arrow-left" viewBox="0 0 24 24">
    <path d="M17,11H9.41l3.3-3.29a1,1,0,1,0-1.42-1.42l-5,5a1,1,0,0,0-.21.33,1,1,0,0,0,0,.76,1,1,0,0,0,.21.33l5,5a1,1,0,0,0,1.42,0,1,1,0,0,0,0-1.42L9.41,13H17a1,1,0,0,0,0-2Z"/>
</symbol>
<symbol id="check" viewBox="0 0 24 24">
    <path d="M18.71,7.21a1,1,0,0,0-1.42,0L9.84,14.67,6.71,11.53A1,1,0,1,0,5.29,13l3.84,3.84a1,1,0,0,0,1.42,0l8.16-8.16A1,1,0,0,0,18.71,7.21Z"/>
</symbol>
<symbol id="message" viewBox="0 0 24 24">
    <path d="M20.34,9.32l-14-7a3,3,0,0,0-4.08,3.9l2.4,5.37h0a1.06,1.06,0,0,1,0,.82l-2.4,5.37A3,3,0,0,0,5,22a3.14,3.14,0,0,0,1.35-.32l14-7a3,3,0,0,0,0-5.36Zm-.89,3.57-14,7a1,1,0,0,1-1.35-1.3l2.39-5.37A2,2,0,0,0,6.57,13h6.89a1,1,0,0,0,0-2H6.57a2,2,0,0,0-.08-.22L4.1,5.41a1,1,0,0,1,1.35-1.3l14,7a1,1,0,0,1,0,1.78Z"/>
</symbol>
<symbol id="home" viewBox="0 0 24 24">
    <path d="M20,8h0L14,2.74a3,3,0,0,0-4,0L4,8a3,3,0,0,0-1,2.26V19a3,3,0,0,0,3,3H18a3,3,0,0,0,3-3V10.25A3,3,0,0,0,20,8ZM14,20H10V15a1,1,0,0,1,1-1h2a1,1,0,0,1,1,1Zm5-1a1,1,0,0,1-1,1H16V15a3,3,0,0,0-3-3H11a3,3,0,0,0-3,3v5H6a1,1,0,0,1-1-1V10.25a1,1,0,0,1,.34-.75l6-5.25a1,1,0,0,1,1.32,0l6,5.25a1,1,0,0,1,.34.75Z"/>
</symbol>
<symbol id="list" viewBox="0 0 24 24">
    <path d="M3.71,16.29a1,1,0,0,0-.33-.21,1,1,0,0,0-.76,0,1,1,0,0,0-.33.21,1,1,0,0,0-.21.33,1,1,0,0,0,.21,1.09,1.15,1.15,0,0,0,.33.21.94.94,0,0,0,.76,0,1.15,1.15,0,0,0,.33-.21,1,1,0,0,0,.21-1.09A1,1,0,0,0,3.71,16.29ZM7,8H21a1,1,0,0,0,0-2H7A1,1,0,0,0,7,8ZM3.71,11.29a1,1,0,0,0-1.09-.21,1.15,1.15,0,0,0-.33.21,1,1,0,0,0-.21.33.94.94,0,0,0,0,.76,1.15,1.15,0,0,0,.21.33,1.15,1.15,0,0,0,.33.21.94.94,0,0,0,.76,0,1.15,1.15,0,0,0,.33-.21,1.15,1.15,0,0,0,.21-.33.94.94,0,0,0,0-.76A1,1,0,0,0,3.71,11.29ZM21,11H7a1,1,0,0,0,0,2H21a1,1,0,0,0,0-2ZM3.71,6.29a1,1,0,0,0-.33-.21,1,1,0,0,0-1.09.21,1.15,1.15,0,0,0-.21.33.94.94,0,0,0,0,.76,1.15,1.15,0,0,0,.21.33,1.15,1.15,0,0,0,.33.21,1,1,0,0,0,1.09-.21,1.15,1.15,0,0,0,.21-.33.94.94,0,0,0,0-.76A1.15,1.15,0,0,0,3.71,6.29ZM21,16H7a1,1,0,0,0,0,2H21a1,1,0,0,0,0-2Z"/>
</symbol>
<symbol id="analysis" viewBox="0 0 24 24">
    <path d="M21.71,7.29a1,1,0,0,0-1.42,0L14,13.59,9.71,9.29a1,1,0,0,0-1.42,0l-6,6a1,1,0,0,0,0,1.42,1,1,0,0,0,1.42,0L9,11.41l4.29,4.3a1,1,0,0,0,1.42,0l7-7A1,1,0,0,0,21.71,7.29Z"/>
</symbol>
<symbol id="sync" viewBox="0 0 24 24">
    <path d="M19.91,15.51H15.38a1,1,0,0,0,0,2h2.4A8,8,0,0,1,4,12a1,1,0,0,0-2,0,10,10,0,0,0,16.88,7.23V21a1,1,0,0,0,2,0V16.5A1,1,0,0,0,19.91,15.51ZM12,2A10,10,0,0,0,5.12,4.77V3a1,1,0,0,0-2,0V7.5a1,1,0,0,0,1,1h4.5a1,1,0,0,0,0-2H6.22A8,8,0,0,1,20,12a1,1,0,0,0,2,0A10,10,0,0,0,12,2Z"/>
</symbol>
<symbol id="percentage" viewBox="0 0 24 24">
    <path d="M7.75781,10.75781a3,3,0,1,0-3-3A3.00328,3.00328,0,0,0,7.75781,10.75781Zm0-4a1,1,0,1,1-1,1A1.00067,1.00067,0,0,1,7.75781,6.75781Zm8.48438,6.48438a3,3,0,1,0,3,3A3.00328,3.00328,0,0,0,16.24219,13.24219Zm0,4a1,1,0,1,1,1-1A1.00067,1.00067,0,0,1,16.24219,17.24219ZM19.707,4.293a.99962.99962,0,0,0-1.41406,0l-14,14A.99989.99989,0,1,0,5.707,19.707l14-14A.99962.99962,0,0,0,19.707,4.293Z"/>
</symbol>
<symbol id="user" viewBox="0 0 24 24">
    <path d="M15.71,12.71a6,6,0,1,0-7.42,0,10,10,0,0,0-6.22,8.18,1,1,0,0,0,2,.22,8,8,0,0,1,15.9,0,1,1,0,0,0,1,.89h.11a1,1,0,0,0,.88-1.1A10,10,0,0,0,15.71,12.71ZM12,12a4,4,0,1,1,4-4A4,4,0,0,1,12,12Z"/>
</symbol>
<symbol id="twitter" viewBox="0 0 24 24">
    <path d="M23.444,4.834c-0.814,0.363-1.5,0.375-2.228,0.016c0.938-0.562,0.981-0.957,1.32-2.019c-0.878,0.521-1.851,0.9-2.886,1.104 C18.823,3.053,17.642,2.5,16.335,2.5c-2.51,0-4.544,2.036-4.544,4.544c0,0.356,0.04,0.703,0.117,1.036 C8.132,7.891,4.783,6.082,2.542,3.332C2.151,4.003,1.927,4.784,1.927,5.617c0,1.577,0.803,2.967,2.021,3.782 C3.203,9.375,2.503,9.171,1.891,8.831C1.89,8.85,1.89,8.868,1.89,8.888c0,2.202,1.566,4.038,3.646,4.456 c-0.666,0.181-1.368,0.209-2.053,0.079c0.579,1.804,2.257,3.118,4.245,3.155C5.783,18.102,3.372,18.737,1,18.459 C3.012,19.748,5.399,20.5,7.966,20.5c8.358,0,12.928-6.924,12.928-12.929c0-0.198-0.003-0.393-0.012-0.588 C21.769,6.343,22.835,5.746,23.444,4.834z"></path>
</symbol>
<symbol id="facebook" viewBox="0 0 24 24">
    <path d="M18.768,7.465H14.5V5.56c0-0.896,0.594-1.105,1.012-1.105s2.988,0,2.988,0V0.513L14.171,0.5C10.244,0.5,9.5,3.438,9.5,5.32 v2.145h-3v4h3c0,5.212,0,12,0,12h5c0,0,0-6.85,0-12h3.851L18.768,7.465z"></path>
</symbol>
<symbol id="linkedin" viewBox="0 0 24 24">
    <path d="M19 0h-14c-2.761 0-5 2.239-5 5v14c0 2.761 2.239 5 5 5h14c2.762 0 5-2.239 5-5v-14c0-2.761-2.238-5-5-5zm-11 19h-3v-11h3v11zm-1.5-12.268c-.966 0-1.75-.79-1.75-1.764s.784-1.764 1.75-1.764 1.75.79 1.75 1.764-.783 1.764-1.75 1.764zm13.5 12.268h-3v-5.604c0-3.368-4-3.113-4 0v5.604h-3v-11h3v1.765c1.396-2.586 7-2.777 7 2.476v6.759z"></path>
</symbol>
<symbol id="world" viewBox="0 0 24 24">
    <path d="M0 0h24v24H0V0z" fill="none"/>
    <path d="M12 2C6.48 2 2 6.48 2 12s4.48 10 10 10 10-4.48 10-10S17.52 2 12 2zM4 12c0-.61.08-1.21.21-1.78L8.99 15v1c0 1.1.9 2 2 2v1.93C7.06 19.43 4 16.07 4 12zm13.89 5.4c-.26-.81-1-1.4-1.9-1.4h-1v-3c0-.55-.45-1-1-1h-6v-2h2c.55 0 1-.45 1-1V7h2c1.1 0 2-.9 2-2v-.41C17.92 5.77 20 8.65 20 12c0 2.08-.81 3.98-2.11 5.4z"/>
</symbol>
<symbol id="leaderboard" viewBox="0 0 24 24">
    <rect fill="none" height="24" width="24"/>
    <g><path d="M16,11V3H8v6H2v12h20V11H16z M10,5h4v14h-4V5z M4,11h4v8H4V11z M20,19h-4v-6h4V19z"/></g>
</symbol>
</svg>
