<?xml version="1.0" encoding="UTF-8"?>
<svg xmlns="http://www.w3.org/2000/svg" style="display: none;">
<symbol id="angle-down" viewBox="0 0 24 24">
    <path d="M17,9.17a1,1,0,0,0-1.41,0L12,12.71,8.46,9.17a1,1,0,0,0-1.41,0,1,1,0,0,0,0,1.42l4.24,4.24a1,1,0,0,0,1.42,0L17,10.59A1,1,0,0,0,17,9.17Z"/>
</symbol>
<symbol id="arrow-left" viewBox="0 0 24 24">
    <path d="M17,11H9.41l3.3-3.29a1,1,0,1,0-1.42-1.42l-5,5a1,1,0,0,0-.21.33,1,1,0,0,0,0,.76,1,1,0,0,0,.21.33l5,5a1,1,0,0,0,1.42,0,1,1,0,0,0,0-1.42L9.41,13H17a1,1,0,0,0,0-2Z"/>
</symbol>
<symbol id="check" viewBox="0 0 24 24">
    <path d="M18.71,7.21a1,1,0,0,0-1.42,0L9.84,14.67,6.71,11.53A1,1,0,1,0,5.29,13l3.84,3.84a1,1,0,0,0,1.42,0l8.16-8.16A1,1,0,0,0,18.71,7.21Z"/>
</symbol>
<symbol id="message" viewBox="0 0 24 24">
    <path d="M20.34,9.32l-14-7a3,3,0,0,0-4.08,3.9l2.4,5.37h0a1.06,1.06,0,0,1,0,.82l-2.4,5.37A3,3,0,0,0,5,22a3.14,3.14,0,0,0,1.35-.32l14-7a3,3,0,0,0,0-5.36Zm-.89,3.57-14,7a1,1,0,0,1-1.35-1.3l2.39-5.37A2,2,0,0,0,6.57,13h6.89a1,1,0,0,0,0-2H6.57a2,2,0,0,0-.08-.22L4.1,5.41a1,1,0,0,1,1.35-1.3l14,7a1,1,0,0,1,0,1.78Z"/>
</symbol>
<symbol id="home" viewBox="0 0 24 24">
    <path d="M20,8h0L14,2.74a3,3,0,0,0-4,0L4,8a3,3,0,0,0-1,2.26V19a3,3,0,0,0,3,3H18a3,3,0,0,0,3-3V10.25A3,3,0,0,0,20,8ZM14,20H10V15a1,1,0,0,1,1-1h2a1,1,0,0,1,1,1Zm5-1a1,1,0,0,1-1,1H16V15a3,3,0,0,0-3-3H11a3,3,0,0,0-3,3v5H6a1,1,0,0,1-1-1V10.25a1,1,0,0,1,.34-.75l6-5.25a1,1,0,0,1,1.32,0l6,5.25a1,1,0,0,1,.34.75Z"/>
</symbol>
<symbol id="notes" viewBox="0 0 24 24">
    <path d="M16,14H8a1,1,0,0,0,0,2h8a1,1,0,0,0,0-2Zm0-4H10a1,1,0,0,0,0,2h6a1,1,0,0,0,0-2Zm4-6H17V3a1,1,0,0,0-2,0V4H13V3a1,1,0,0,0-2,0V4H9V3A1,1,0,0,0,7,3V4H4A1,1,0,0,0,3,5V19a3,3,0,0,0,3,3H18a3,3,0,0,0,3-3V5A1,1,0,0,0,20,4ZM19,19a1,1,0,0,1-1,1H6a1,1,0,0,1-1-1V6H7V7A1,1,0,0,0,9,7V6h2V7a1,1,0,0,0,2,0V6h2V7a1,1,0,0,0,2,0V6h2Z"/>
</symbol>
<symbol id="comment" viewBox="0 0 24 24">
    <path d="M7,7A1,1,0,1,0,8,8,1,1,0,0,0,7,7Zm0,4a1,1,0,1,0,1,1A1,1,0,0,0,7,11Zm10,0H11a1,1,0,0,0,0,2h6a1,1,0,0,0,0-2Zm0-4H11a1,1,0,0,0,0,2h6a1,1,0,0,0,0-2Zm2-5H5A3,3,0,0,0,2,5V15a3,3,0,0,0,3,3H16.59l3.7,3.71A1,1,0,0,0,21,22a.84.84,0,0,0,.38-.08A1,1,0,0,0,22,21V5A3,3,0,0,0,19,2Zm1,16.59-2.29-2.3A1,1,0,0,0,17,16H5a1,1,0,0,1-1-1V5A1,1,0,0,1,5,4H19a1,1,0,0,1,1,1Z"/>
</symbol>
<symbol id="list" viewBox="0 0 24 24">
    <path d="M3.71,16.29a1,1,0,0,0-.33-.21,1,1,0,0,0-.76,0,1,1,0,0,0-.33.21,1,1,0,0,0-.21.33,1,1,0,0,0,.21,1.09,1.15,1.15,0,0,0,.33.21.94.94,0,0,0,.76,0,1.15,1.15,0,0,0,.33-.21,1,1,0,0,0,.21-1.09A1,1,0,0,0,3.71,16.29ZM7,8H21a1,1,0,0,0,0-2H7A1,1,0,0,0,7,8ZM3.71,11.29a1,1,0,0,0-1.09-.21,1.15,1.15,0,0,0-.33.21,1,1,0,0,0-.21.33.94.94,0,0,0,0,.76,1.15,1.15,0,0,0,.21.33,1.15,1.15,0,0,0,.33.21.94.94,0,0,0,.76,0,1.15,1.15,0,0,0,.33-.21,1.15,1.15,0,0,0,.21-.33.94.94,0,0,0,0-.76A1,1,0,0,0,3.71,11.29ZM21,11H7a1,1,0,0,0,0,2H21a1,1,0,0,0,0-2ZM3.71,6.29a1,1,0,0,0-.33-.21,1,1,0,0,0-1.09.21,1.15,1.15,0,0,0-.21.33.94.94,0,0,0,0,.76,1.15,1.15,0,0,0,.21.33,1.15,1.15,0,0,0,.33.21,1,1,0,0,0,1.09-.21,1.15,1.15,0,0,0,.21-.33.94.94,0,0,0,0-.76A1.15,1.15,0,0,0,3.71,6.29ZM21,16H7a1,1,0,0,0,0,2H21a1,1,0,0,0,0-2Z"/>
</symbol>
<symbol id="analysis" viewBox="0 0 24 24">
    <path d="M21.71,7.29a1,1,0,0,0-1.42,0L14,13.59,9.71,9.29a1,1,0,0,0-1.42,0l-6,6a1,1,0,0,0,0,1.42,1,1,0,0,0,1.42,0L9,11.41l4.29,4.3a1,1,0,0,0,1.42,0l7-7A1,1,0,0,0,21.71,7.29Z"/>
</symbol>
<symbol id="comparison" viewBox="0 0 24 24">
    <path d="M21,20H4v-.54l5-5,3.8,3.8a1,1,0,0,0,1.41,0l7.5-7.5a1,1,0,0,0,0-1.42,1,1,0,0,0-1.41,0l-6.8,6.8-3.79-3.8a1,1,0,0,0-1.41,0L4,16.63V11.46l5-5,2.8,2.8a1,1,0,0,0,1.41,0L18,4.47l2.19,2.19a1,1,0,0,0,1.41-1.42L18.69,2.35a1,1,0,0,0-1.41,0l-4.8,4.8L9.69,4.35a1,1,0,0,0-1.41,0L4,8.63V3A1,1,0,0,0,2,3V21a1,1,0,0,0,1,1H21a1,1,0,0,0,0-2Z"/>
</symbol>
<symbol id="sync" viewBox="0 0 24 24">
    <path d="M19.91,15.51H15.38a1,1,0,0,0,0,2h2.4A8,8,0,0,1,4,12a1,1,0,0,0-2,0,10,10,0,0,0,16.88,7.23V21a1,1,0,0,0,2,0V16.5A1,1,0,0,0,19.91,15.51ZM12,2A10,10,0,0,0,5.12,4.77V3a1,1,0,0,0-2,0V7.5a1,1,0,0,0,1,1h4.5a1,1,0,0,0,0-2H6.22A8,8,0,0,1,20,12a1,1,0,0,0,2,0A10,10,0,0,0,12,2Z"/>
</symbol>
<symbol id="twitter" viewBox="0 0 24 24">
    <path d="M23.444,4.834c-0.814,0.363-1.5,0.375-2.228,0.016c0.938-0.562,0.981-0.957,1.32-2.019c-0.878,0.521-1.851,0.9-2.886,1.104 C18.823,3.053,17.642,2.5,16.335,2.5c-2.51,0-4.544,2.036-4.544,4.544c0,0.356,0.04,0.703,0.117,1.036 C8.132,7.891,4.783,6.082,2.542,3.332C2.151,4.003,1.927,4.784,1.927,5.617c0,1.577,0.803,2.967,2.021,3.782 C3.203,9.375,2.503,9.171,1.891,8.831C1.89,8.85,1.89,8.868,1.89,8.888c0,2.202,1.566,4.038,3.646,4.456 c-0.666,0.181-1.368,0.209-2.053,0.079c0.579,1.804,2.257,3.118,4.245,3.155C5.783,18.102,3.372,18.737,1,18.459 C3.012,19.748,5.399,20.5,7.966,20.5c8.358,0,12.928-6.924,12.928-12.929c0-0.198-0.003-0.393-0.012-0.588 C21.769,6.343,22.835,5.746,23.444,4.834z"></path>
</symbol>
<symbol id="facebook" viewBox="0 0 24 24">
    <path d="M18.768,7.465H14.5V5.56c0-0.896,0.594-1.105,1.012-1.105s2.988,0,2.988,0V0.513L14.171,0.5C10.244,0.5,9.5,3.438,9.5,5.32 v2.145h-3v4h3c0,5.212,0,12,0,12h5c0,0,0-6.85,0-12h3.851L18.768,7.465z"></path>
</symbol>
<symbol id="linkedin" viewBox="0 0 24 24">
    <path d="M19 0h-14c-2.761 0-5 2.239-5 5v14c0 2.761 2.239 5 5 5h14c2.762 0 5-2.239 5-5v-14c0-2.761-2.238-5-5-5zm-11 19h-3v-11h3v11zm-1.5-12.268c-.966 0-1.75-.79-1.75-1.764s.784-1.764 1.75-1.764 1.75.79 1.75 1.764-.783 1.764-1.75 1.764zm13.5 12.268h-3v-5.604c0-3.368-4-3.113-4 0v5.604h-3v-11h3v1.765c1.396-2.586 7-2.777 7 2.476v6.759z"></path>
</symbol>
</svg>
